<mxfile host="app.diagrams.net" agent="Mozilla/5.0 (Windows NT 10.0; Win64; x64) AppleWebKit/537.36 (KHTML, like Gecko) Chrome/136.0.0.0 Safari/537.36 Edg/136.0.0.0" version="27.0.1">
  <diagram name="第 1 页" id="ROMm_DaNwAMZsz36nzgL">
    <mxGraphModel dx="924" dy="449" grid="1" gridSize="10" guides="1" tooltips="1" connect="1" arrows="1" fold="1" page="1" pageScale="1" pageWidth="827" pageHeight="1169" math="0" shadow="0">
      <root>
        <mxCell id="0" />
        <mxCell id="1" parent="0" />
        <mxCell id="TS_DgP6K1ec_X0KYbRFe-1" value="" style="rounded=0;whiteSpace=wrap;html=1;" parent="1" vertex="1">
          <mxGeometry x="600" y="430" width="40" height="60" as="geometry" />
        </mxCell>
        <mxCell id="zPmClShUyptiGjfQgdNd-6" value="" style="rounded=0;whiteSpace=wrap;html=1;" vertex="1" parent="1">
          <mxGeometry x="640" y="430" width="40" height="60" as="geometry" />
        </mxCell>
        <mxCell id="zPmClShUyptiGjfQgdNd-9" value="" style="rounded=0;whiteSpace=wrap;html=1;" vertex="1" parent="1">
          <mxGeometry x="680" y="430" width="40" height="60" as="geometry" />
        </mxCell>
        <mxCell id="zPmClShUyptiGjfQgdNd-11" value="" style="rounded=0;whiteSpace=wrap;html=1;" vertex="1" parent="1">
          <mxGeometry x="720" y="430" width="40" height="60" as="geometry" />
        </mxCell>
        <mxCell id="zPmClShUyptiGjfQgdNd-24" value="" style="group" vertex="1" connectable="0" parent="1">
          <mxGeometry x="100" y="350" width="160" height="60" as="geometry" />
        </mxCell>
        <mxCell id="zPmClShUyptiGjfQgdNd-16" value="" style="rounded=0;whiteSpace=wrap;html=1;" vertex="1" parent="zPmClShUyptiGjfQgdNd-24">
          <mxGeometry width="40" height="60" as="geometry" />
        </mxCell>
        <mxCell id="zPmClShUyptiGjfQgdNd-17" value="" style="rounded=0;whiteSpace=wrap;html=1;" vertex="1" parent="zPmClShUyptiGjfQgdNd-24">
          <mxGeometry x="40" width="40" height="60" as="geometry" />
        </mxCell>
        <mxCell id="zPmClShUyptiGjfQgdNd-18" value="" style="rounded=0;whiteSpace=wrap;html=1;" vertex="1" parent="zPmClShUyptiGjfQgdNd-24">
          <mxGeometry x="80" width="40" height="60" as="geometry" />
        </mxCell>
        <mxCell id="zPmClShUyptiGjfQgdNd-19" value="" style="rounded=0;whiteSpace=wrap;html=1;" vertex="1" parent="zPmClShUyptiGjfQgdNd-24">
          <mxGeometry x="120" width="40" height="60" as="geometry" />
        </mxCell>
        <mxCell id="zPmClShUyptiGjfQgdNd-25" value="" style="group" vertex="1" connectable="0" parent="1">
          <mxGeometry x="100" y="280" width="160" height="60" as="geometry" />
        </mxCell>
        <mxCell id="zPmClShUyptiGjfQgdNd-20" value="" style="rounded=0;whiteSpace=wrap;html=1;" vertex="1" parent="zPmClShUyptiGjfQgdNd-25">
          <mxGeometry width="40" height="60" as="geometry" />
        </mxCell>
        <mxCell id="zPmClShUyptiGjfQgdNd-21" value="" style="rounded=0;whiteSpace=wrap;html=1;" vertex="1" parent="zPmClShUyptiGjfQgdNd-25">
          <mxGeometry x="40" width="40" height="60" as="geometry" />
        </mxCell>
        <mxCell id="zPmClShUyptiGjfQgdNd-22" value="" style="rounded=0;whiteSpace=wrap;html=1;" vertex="1" parent="zPmClShUyptiGjfQgdNd-25">
          <mxGeometry x="80" width="40" height="60" as="geometry" />
        </mxCell>
        <mxCell id="zPmClShUyptiGjfQgdNd-23" value="" style="rounded=0;whiteSpace=wrap;html=1;" vertex="1" parent="zPmClShUyptiGjfQgdNd-25">
          <mxGeometry x="120" width="40" height="60" as="geometry" />
        </mxCell>
        <mxCell id="zPmClShUyptiGjfQgdNd-26" value="" style="group" vertex="1" connectable="0" parent="1">
          <mxGeometry x="100" y="210" width="160" height="60" as="geometry" />
        </mxCell>
        <mxCell id="zPmClShUyptiGjfQgdNd-27" value="" style="rounded=0;whiteSpace=wrap;html=1;" vertex="1" parent="zPmClShUyptiGjfQgdNd-26">
          <mxGeometry width="40" height="60" as="geometry" />
        </mxCell>
        <mxCell id="zPmClShUyptiGjfQgdNd-28" value="" style="rounded=0;whiteSpace=wrap;html=1;" vertex="1" parent="zPmClShUyptiGjfQgdNd-26">
          <mxGeometry x="40" width="40" height="60" as="geometry" />
        </mxCell>
        <mxCell id="zPmClShUyptiGjfQgdNd-29" value="" style="rounded=0;whiteSpace=wrap;html=1;" vertex="1" parent="zPmClShUyptiGjfQgdNd-26">
          <mxGeometry x="80" width="40" height="60" as="geometry" />
        </mxCell>
        <mxCell id="zPmClShUyptiGjfQgdNd-30" value="" style="rounded=0;whiteSpace=wrap;html=1;" vertex="1" parent="zPmClShUyptiGjfQgdNd-26">
          <mxGeometry x="120" width="40" height="60" as="geometry" />
        </mxCell>
        <mxCell id="zPmClShUyptiGjfQgdNd-31" value="" style="group" vertex="1" connectable="0" parent="1">
          <mxGeometry x="360" y="280" width="160" height="60" as="geometry" />
        </mxCell>
        <mxCell id="zPmClShUyptiGjfQgdNd-32" value="" style="rounded=0;whiteSpace=wrap;html=1;" vertex="1" parent="zPmClShUyptiGjfQgdNd-31">
          <mxGeometry width="40" height="60" as="geometry" />
        </mxCell>
        <mxCell id="zPmClShUyptiGjfQgdNd-33" value="" style="rounded=0;whiteSpace=wrap;html=1;" vertex="1" parent="zPmClShUyptiGjfQgdNd-31">
          <mxGeometry x="40" width="40" height="60" as="geometry" />
        </mxCell>
        <mxCell id="zPmClShUyptiGjfQgdNd-34" value="" style="rounded=0;whiteSpace=wrap;html=1;" vertex="1" parent="zPmClShUyptiGjfQgdNd-31">
          <mxGeometry x="80" width="40" height="60" as="geometry" />
        </mxCell>
        <mxCell id="zPmClShUyptiGjfQgdNd-35" value="" style="rounded=0;whiteSpace=wrap;html=1;" vertex="1" parent="zPmClShUyptiGjfQgdNd-31">
          <mxGeometry x="120" width="40" height="60" as="geometry" />
        </mxCell>
        <mxCell id="zPmClShUyptiGjfQgdNd-37" value="" style="whiteSpace=wrap;html=1;aspect=fixed;" vertex="1" parent="1">
          <mxGeometry x="290" y="220" width="40" height="40" as="geometry" />
        </mxCell>
        <mxCell id="zPmClShUyptiGjfQgdNd-38" value="" style="whiteSpace=wrap;html=1;aspect=fixed;" vertex="1" parent="1">
          <mxGeometry x="290" y="290" width="40" height="40" as="geometry" />
        </mxCell>
        <mxCell id="zPmClShUyptiGjfQgdNd-39" value="" style="whiteSpace=wrap;html=1;aspect=fixed;" vertex="1" parent="1">
          <mxGeometry x="290" y="360" width="40" height="40" as="geometry" />
        </mxCell>
      </root>
    </mxGraphModel>
  </diagram>
</mxfile>
